<svg xmlns="http://www.w3.org/2000/svg" width="164.04739379882812" height="245.6776123046875" viewBox="-3.9551258087158203 -21.96025848388672 164.04739379882812 245.6776123046875"><title>Neo4j Graph Visualization</title><desc>Created using Neo4j (http://www.neo4j.com/)</desc><g class="layer relationships"><g class="relationship" transform="translate(131.09226486596134 7.039742083054352) rotate(523.5101590000078)"><path class="outline" fill="#A5ABB6" stroke="none" d="M 21.40063509461097,12.933012701892217 L 21.90063509461097,12.06698729810778 A 60.90366952437636 60.90366952437636 0 0 0 40.968633726709406,19.153165970065558 L 40.781718287639954,20.135541976815247 A 61.90366952437636 61.90366952437636 0 0 1 21.40063509461097,12.933012701892217 Z M 60.18559238096819,20.728940931345427 L 60.05905509191322,19.736979080023204 A 60.90366952437636 60.90366952437636 0 0 0 79.52442779865567,13.829207470336216 L 78.18598835055404,11.144327613850002 L 86.01222070514044,11.15366206751348 L 81.30901372945782,17.409047278984502 L 79.97057428135619,14.724167422498288 A 61.90366952437636 61.90366952437636 0 0 1 60.18559238096819,20.728940931345427"/><text text-anchor="middle" pointer-events="none" font-size="8px" fill="#000000" x="50.47553297771792" y="23.697838795187337" transform="rotate(180 50.47553297771792 20.697838795187337)" font-family="sans-serif">trek</text></g><g class="relationship" transform="translate(27.163962112293536 37.804664742420286) rotate(451.14043552213013)"><path class="outline" fill="#A5ABB6" stroke="none" d="M 25 0.5 L 40.06733350048772 0.5 L 40.06733350048772 -0.5 L 25 -0.5 Z M 59.40327100048772 0.5 L 74.47060450097544 0.5 L 74.47060450097544 3.5 L 81.47060450097544 0 L 74.47060450097544 -3.5 L 74.47060450097544 -0.5 L 59.40327100048772 -0.5 Z"/><text text-anchor="middle" pointer-events="none" font-size="8px" fill="#000000" x="49.73530225048772" y="3" transform="rotate(180 49.73530225048772 0)" font-family="sans-serif">trek</text></g><g class="relationship" transform="translate(25.04487335903369 144.25417899992613) rotate(388.11560931127076)"><path class="outline" fill="#A5ABB6" stroke="none" d="M 25 0.5 L 40.37359690007459 0.5 L 40.37359690007459 -0.5 L 25 -0.5 Z M 59.70953440007459 0.5 L 75.08313130014918 0.5 L 75.08313130014918 3.5 L 82.08313130014918 0 L 75.08313130014918 -3.5 L 75.08313130014918 -0.5 L 59.70953440007459 -0.5 Z"/><text text-anchor="middle" pointer-events="none" font-size="8px" fill="#000000" x="50.04156565007459" y="3" font-family="sans-serif">trek</text></g><g class="relationship" transform="translate(131.09226486596134 7.039742083054352) rotate(523.5101590000078)"><path class="outline" fill="#A5ABB6" stroke="none" d="M 25 0.5 L 39.687250379596115 0.5 L 39.687250379596115 -0.5 L 25 -0.5 Z M 61.698969129596115 0.5 L 76.38621950919223 0.5 L 76.38621950919223 3.5 L 83.38621950919223 0 L 76.38621950919223 -3.5 L 76.38621950919223 -0.5 L 61.698969129596115 -0.5 Z"/><text text-anchor="middle" pointer-events="none" font-size="8px" fill="#000000" x="50.693109754596115" y="3" transform="rotate(180 50.693109754596115 0)" font-family="sans-serif">road</text></g><g class="relationship" transform="translate(131.09226486596134 7.039742083054352) rotate(523.5101590000078)"><path class="outline" fill="#A5ABB6" stroke="none" d="M 21.40063509461097,-12.933012701892217 L 21.90063509461097,-12.06698729810778 A 60.90366952437636 60.90366952437636 0 0 1 21.96795561878694,-12.105797579502529 L 21.469060979509898,-12.972460223730735 A 61.90366952437636 61.90366952437636 0 0 0 21.40063509461097,-12.933012701892217 Z M 79.89986579231393,-14.75936001093337 L 79.45486154382317,-13.863831553080026 A 60.90366952437636 60.90366952437636 0 0 1 79.52442779865567,-13.829207470336216 L 78.18598835055404,-11.144327613850002 L 86.01222070514044,-11.15366206751348 L 81.30901372945782,-17.409047278984502 L 79.97057428135619,-14.724167422498288 A 61.90366952437636 61.90366952437636 0 0 0 79.89986579231393,-14.75936001093337"/><text text-anchor="middle" pointer-events="none" font-size="8px" fill="#000000" x="50.47553297771791" y="-17.697838795187337" transform="rotate(180 50.47553297771791 -20.697838795187337)" font-family="sans-serif">PublicTransp…</text></g></g><g class="layer nodes"><g class="node" transform="translate(131.09226486596134,7.039742083054352)"><circle class="outline" cx="0" cy="0" r="25" fill="#F16667" stroke="#eb2728" stroke-width="2px"/><text text-anchor="middle" pointer-events="none" font-family="sans-serif" dy="1.5625" font-size="25" fill="#FFFFFF"/><text text-anchor="middle" pointer-events="none" y="5" font-size="10px" fill="#FFFFFF" font-family="sans-serif"> Darjeeling</text></g><g class="node" transform="translate(119.4920360071603,194.7173385994132)"><circle class="outline" cx="0" cy="0" r="25" fill="#8DCC93" stroke="#5db665" stroke-width="2px"/><text text-anchor="middle" pointer-events="none" font-family="sans-serif" dy="1.5625" font-size="25" fill="#604A0E"/><text text-anchor="middle" pointer-events="none" y="5" font-size="10px" fill="#604A0E" font-family="sans-serif"> Sandak…</text></g><g class="node" transform="translate(27.163962112293536,37.804664742420286)"><circle class="outline" cx="0" cy="0" r="25" fill="#F16667" stroke="#eb2728" stroke-width="2px"/><text text-anchor="middle" pointer-events="none" font-family="sans-serif" dy="1.5625" font-size="25" fill="#FFFFFF"/><text text-anchor="middle" pointer-events="none" y="5" font-size="10px" fill="#FFFFFF" font-family="sans-serif"> Rimbik</text></g><g class="node" transform="translate(25.04487335903369,144.25417899992613)"><circle class="outline" cx="0" cy="0" r="25" fill="#D9C8AE" stroke="#c0a378" stroke-width="2px"/><text text-anchor="middle" pointer-events="none" font-family="sans-serif" dy="1.5625" font-size="25" fill="#604A0E"/><text text-anchor="middle" pointer-events="none" y="5" font-size="10px" fill="#604A0E" font-family="sans-serif"> BhikeBh…</text></g></g></svg>